<svg xmlns="http://www.w3.org/2000/svg" xmlns:xlink="http://www.w3.org/1999/xlink" version="1.1" width="1000" height="1000" viewBox="0 0 1000 1000" xml:space="preserve">
<desc>Created with Fabric.js 3.5.0</desc>
<defs>
</defs>
<rect x="0" y="0" width="100%" height="100%" fill="#ffffff"/>
<g transform="matrix(1.8127 0 0 1.8127 490.474 490.474)" id="120499">
<g style="" vector-effect="non-scaling-stroke">
		<g transform="matrix(1 0 0 1 0 0)" id="Capa_1">
<path style="stroke: none; stroke-width: 1; stroke-dasharray: none; stroke-linecap: butt; stroke-dashoffset: 0; stroke-linejoin: miter; stroke-miterlimit: 4; is-custom-font: none; font-file-url: none; fill: rgb(255,255,255); fill-rule: nonzero; opacity: 1;" transform=" translate(-256, -256)" d="M 437.022 74.984 C 388.67 26.63 324.381 0 256 0 C 187.624 0 123.338 26.63 74.984 74.984 S 0 187.624 0 256 c 0 68.388 26.63 132.678 74.984 181.028 C 123.335 485.375 187.621 512 256 512 c 68.385 0 132.673 -26.625 181.021 -74.972 C 485.372 388.679 512 324.389 512 256 C 512 187.622 485.372 123.336 437.022 74.984 z M 425.708 425.714 C 380.381 471.039 320.111 496 256 496 c -64.106 0 -124.374 -24.961 -169.703 -70.286 C 40.965 380.386 16 320.113 16 256 c 0 -64.102 24.965 -124.37 70.297 -169.702 C 131.63 40.965 191.898 16 256 16 c 64.108 0 124.378 24.965 169.708 70.297 C 471.037 131.628 496 191.896 496 256 C 496 320.115 471.037 380.387 425.708 425.714 z" stroke-linecap="round"/>
</g>
		<g transform="matrix(1 0 0 1 36.0012 40.0043)" id="Capa_1">
<path style="stroke: none; stroke-width: 1; stroke-dasharray: none; stroke-linecap: butt; stroke-dashoffset: 0; stroke-linejoin: miter; stroke-miterlimit: 4; is-custom-font: none; font-file-url: none; fill: rgb(255,255,255); fill-rule: nonzero; opacity: 1;" transform=" translate(-292.0012, -296.0044)" d="M 430.038 114.969 c -2.784 -3.432 -7.821 -3.956 -11.253 -1.172 c -3.431 2.784 -3.956 7.822 -1.172 11.252 C 447.526 161.919 464 208.425 464 256 c 0 55.567 -21.635 107.803 -60.919 147.085 C 363.797 442.367 311.563 464 256 464 c -51.26 0 -100.505 -18.807 -138.663 -52.956 c -3.292 -2.946 -8.35 -2.666 -11.296 0.626 c -2.946 3.292 -2.666 8.35 0.626 11.296 C 147.763 459.745 200.797 480 256 480 c 59.837 0 116.089 -23.297 158.394 -65.601 C 456.701 372.094 480 315.84 480 256 C 480 204.766 462.256 154.681 430.038 114.969 z" stroke-linecap="round"/>
</g>
		<g transform="matrix(1 0 0 1 -36.0013 -40.001)" id="Capa_1">
<path style="stroke: none; stroke-width: 1; stroke-dasharray: none; stroke-linecap: butt; stroke-dashoffset: 0; stroke-linejoin: miter; stroke-miterlimit: 4; is-custom-font: none; font-file-url: none; fill: rgb(255,255,255); fill-rule: nonzero; opacity: 1;" transform=" translate(-219.9987, -215.999)" d="M 48 256 c 0 -114.691 93.309 -208 208 -208 c 51.26 0 100.504 18.808 138.662 52.959 c 3.293 2.948 8.351 2.666 11.296 -0.625 c 2.947 -3.292 2.667 -8.35 -0.625 -11.296 C 364.237 52.256 311.203 32 256 32 c -59.829 0 -116.079 23.301 -158.389 65.611 C 55.301 139.92 32 196.171 32 256 c 0 51.24 17.744 101.328 49.963 141.038 c 1.581 1.949 3.889 2.96 6.217 2.96 c 1.771 0 3.553 -0.585 5.036 -1.788 c 3.431 -2.784 3.956 -7.822 1.172 -11.253 C 64.474 350.088 48 303.58 48 256 z" stroke-linecap="round"/>
</g>
		<g transform="matrix(1 0 0 1 0 -0.346)" id="Capa_1">
<path style="stroke: none; stroke-width: 1; stroke-dasharray: none; stroke-linecap: butt; stroke-dashoffset: 0; stroke-linejoin: miter; stroke-miterlimit: 4; is-custom-font: none; font-file-url: none; fill: rgb(255,255,255); fill-rule: nonzero; opacity: 1;" transform=" translate(-256, -255.654)" d="M 168 127.654 c -22.056 0 -40 17.944 -40 40 v 176 c 0 22.056 17.944 40 40 40 h 176 c 22.056 0 40 -17.944 40 -40 v -176 c 0 -22.056 -17.944 -40 -40 -40 H 168 z M 344 367.654 H 168 c -13.234 0 -24 -10.766 -24 -24 v -120 h 47.528 c -4.808 9.647 -7.528 20.509 -7.528 32 c 0 39.701 32.299 72 72 72 s 72 -32.299 72 -72 c 0 -11.491 -2.72 -22.353 -7.528 -32 H 368 v 120 C 368 356.888 357.234 367.654 344 367.654 z M 312 255.654 c 0 30.878 -25.122 56 -56 56 s -56 -25.122 -56 -56 s 25.122 -56 56 -56 S 312 224.776 312 255.654 z M 368 167.654 v 40 h -58.392 c -13.192 -14.718 -32.333 -24 -53.608 -24 s -40.416 9.282 -53.608 24 H 144 v -40 c 0 -10.429 6.689 -19.322 16 -22.624 v 46.624 c 0 4.418 3.582 8 8 8 s 8 -3.582 8 -8 v -48 h 8 v 48 c 0 4.418 3.582 8 8 8 s 8 -3.582 8 -8 v -48 h 144 C 357.234 143.654 368 154.42 368 167.654 z" stroke-linecap="round"/>
</g>
		<g transform="matrix(1 0 0 1 16 -16.346)" id="Capa_1">
<path style="stroke: none; stroke-width: 1; stroke-dasharray: none; stroke-linecap: butt; stroke-dashoffset: 0; stroke-linejoin: miter; stroke-miterlimit: 4; is-custom-font: none; font-file-url: none; fill: rgb(255,255,255); fill-rule: nonzero; opacity: 1;" transform=" translate(-272, -239.654)" d="M 256 215.654 c -4.418 0 -8 3.582 -8 8 s 3.582 8 8 8 c 13.234 0 24 10.766 24 24 c 0 4.418 3.582 8 8 8 s 8 -3.582 8 -8 C 296 233.598 278.056 215.654 256 215.654 z" stroke-linecap="round"/>
</g>
		<g transform="matrix(1 0 0 1 80 -80.346)" id="Capa_1">
<path style="stroke: none; stroke-width: 1; stroke-dasharray: none; stroke-linecap: butt; stroke-dashoffset: 0; stroke-linejoin: miter; stroke-miterlimit: 4; is-custom-font: none; font-file-url: none; fill: rgb(255,255,255); fill-rule: nonzero; opacity: 1;" transform=" translate(-336, -175.654)" d="M 312 159.654 v 32 c 0 4.418 3.582 8 8 8 h 32 c 4.418 0 8 -3.582 8 -8 v -32 c 0 -4.418 -3.582 -8 -8 -8 h -32 C 315.582 151.654 312 155.236 312 159.654 z M 328 167.654 h 16 v 16 h -16 V 167.654 z" stroke-linecap="round"/>
</g>
</g>
</g>
</svg>